Coordinates
version=1
nRows=10
nColumns=23
inDegrees=yes

Units are S.I. units (second, meters, Newtons, ...)
If the header above contains a line with 'inDegrees', this indicates whether rotational values are in degrees (yes) or radians (no).

endheader
time	pelvis_tilt	pelvis_list	pelvis_rotation	pelvis_tx	pelvis_ty	pelvis_tz	hip_flexion_r	hip_adduction_r	hip_rotation_r	knee_angle_r	knee_angle_r_beta	ankle_angle_r	subtalar_angle_r	mtp_angle_r	hip_flexion_l	hip_adduction_l	hip_rotation_l	knee_angle_l	knee_angle_l_beta	ankle_angle_l	subtalar_angle_l	mtp_angle_l
     22.50000000	     -2.57138572	     -3.06191648	     -4.06306213	      2.19837400	      0.97605556	      1.02887647	     18.67416764	      5.22828899	     -1.71523881	     43.33651035	      0.75636479	     26.77626065	     -0.14037137	      0.00000000	     18.12206574	     -8.81289344	     -6.95068890	     88.90925521	      1.55175924	     -9.05418710	    -21.12173286	      0.00000000
     22.50666667	     -2.71381419	     -2.76617685	     -3.60813598	      2.19804435	      0.97742417	      1.02852860	     16.73673415	      4.75863803	     -1.85187034	     42.25047476	      0.73740990	     27.41736314	      0.29712682	      0.00000000	     20.29441107	     -8.20135318	     -6.00369006	     89.00151317	      1.55336944	     -7.83954266	    -19.77380201	      0.00000000
     22.51333333	     -2.82234840	     -2.38815390	     -3.22347931	      2.19806614	      0.97938119	      1.02837737	     14.62389095	      4.25361518	     -1.90599423	     40.90156930	      0.71386705	     27.85845285	      0.77389186	      0.00000000	     22.24397105	     -7.55057120	     -5.30373429	     88.68860524	      1.54790817	     -6.71038301	    -18.57732421	      0.00000000
     22.52000000	     -2.83182046	     -1.99246924	     -2.88249131	      2.19848596	      0.98197457	      1.02832156	     12.25889574	      3.73729027	     -1.98709111	     39.26009622	      0.68521794	     28.02624867	      1.39552485	      0.00000000	     23.89173954	     -6.90962307	     -4.79292666	     87.99389760	      1.53578323	     -5.63302181	    -17.41662078	      0.00000000
     22.52666667	     -3.12825331	     -1.31974338	     -2.65697742	      2.19900320	      0.98460283	      1.02835236	     10.24024662	      2.99097714	     -1.87756924	     37.63019710	      0.65677084	     27.96448976	      1.76133654	      0.00000000	     25.68650988	     -5.97196378	     -4.54354125	     86.92773586	      1.51717520	     -4.70147682	    -16.65857127	      0.00000000
     22.53333333	     -3.66344600	     -0.65503796	     -2.70235927	      2.19948944	      0.98730379	      1.02871199	      8.50930092	      2.34012870	     -1.46441219	     35.96797776	      0.62775964	     27.70833600	      2.35623085	      0.00000000	     27.55986711	     -5.21297810	     -4.65068187	     85.55314533	      1.49318407	     -3.98849410	    -16.19976346	      0.00000000
     22.54000000	     -2.94298942	     -0.28666133	     -2.20988947	      2.20123271	      0.99198391	      1.02834554	      4.99519636	      1.69891851	     -2.21406963	     33.56879168	      0.58588594	     26.81749503	      3.28470990	      0.00000000	     27.84205023	     -4.60140961	     -4.45562314	     83.78141604	      1.46226156	     -2.85478832	    -15.15358227	      0.00000000
     22.54666667	     -2.95039180	      0.33589564	     -2.12597870	      2.20257316	      0.99595850	      1.02841219	      2.52045131	      0.97448827	     -2.28540935	     31.48770590	      0.54956414	     25.54129042	      3.82876810	      0.00000000	     28.76979797	     -3.87514134	     -4.70985200	     81.74065557	      1.42664357	     -2.04490545	    -14.76197184	      0.00000000
     22.55333333	     -2.93908944	      0.91290265	     -2.09666531	      2.20407657	      1.00017875	      1.02845096	      0.03059982	      0.31678239	     -2.30833115	     29.31514750	      0.51164584	     23.71784671	      4.18147775	      0.00000000	     29.51730678	     -3.23395211	     -5.07757957	     79.42359828	      1.38620329	     -1.27861084	    -14.48880009	      0.00000000
     22.56000000	     -2.98926600	      1.46872130	     -2.06006364	      2.20573262	      1.00443874	      1.02832796	     -2.34363783	     -0.33636812	     -2.44564713	     27.15377409	      0.47392276	     21.44873823	      4.49567007	      0.00000000	     30.19778527	     -2.58400454	     -5.46438614	     76.86437322	      1.34153639	     -0.59187451	    -14.43650272	      0.00000000
